<?xml version="1.0" encoding="UTF-8" standalone="no"?>
<!DOCTYPE svg PUBLIC "-//W3C//DTD SVG 1.1//EN" "http://www.w3.org/Graphics/SVG/1.1/DTD/svg11.dtd">
<svg width="100%" height="100%" viewBox="0 0 548 174" version="1.1" xmlns="http://www.w3.org/2000/svg" xmlns:xlink="http://www.w3.org/1999/xlink" xml:space="preserve" xmlns:serif="http://www.serif.com/" style="fill-rule:evenodd;clip-rule:evenodd;stroke-linejoin:round;stroke-miterlimit:2;">
    <g id="Artboard1" transform="matrix(0.534819,0,0,0.225519,0,0)">
        <rect x="0" y="0" width="1024" height="768" style="fill:none;"/>
        <clipPath id="_clip1">
            <rect x="0" y="0" width="1024" height="768"/>
        </clipPath>
        <g clip-path="url(#_clip1)">
            <g transform="matrix(1.86979,0,0,4.43421,-11.4701,-1249.31)">
                <g transform="matrix(0.622379,0,0,0.622379,168.904,114.616)">
                    <path d="M481.817,293.715L481.817,394.742C481.817,403.921 474.365,411.373 465.186,411.373L364.159,411.373C354.98,411.373 347.528,403.921 347.528,394.742L347.528,293.715C347.528,284.536 354.98,277.084 364.159,277.084L465.186,277.084C474.365,277.084 481.817,284.536 481.817,293.715Z" style="fill:white;"/>
                </g>
                <g transform="matrix(0.8139,0,0,0.8139,78.215,62.9898)">
                    <path d="M428.52,309.107L445.949,339.294L411.091,339.294L428.52,309.107Z"/>
                </g>
            </g>
            <g transform="matrix(1.14492e-16,4.43421,-1.86979,2.71517e-16,1560.76,-1307.48)">
                <g transform="matrix(0.622379,0,0,0.622379,168.904,114.616)">
                    <path d="M481.817,293.715L481.817,394.742C481.817,403.921 474.365,411.373 465.186,411.373L364.159,411.373C354.98,411.373 347.528,403.921 347.528,394.742L347.528,293.715C347.528,284.536 354.98,277.084 364.159,277.084L465.186,277.084C474.365,277.084 481.817,284.536 481.817,293.715Z" style="fill:white;"/>
                </g>
                <g transform="matrix(0.8139,0,0,0.8139,78.215,62.9898)">
                    <path d="M428.52,309.107L445.949,339.294L411.091,339.294L428.52,309.107Z"/>
                </g>
            </g>
            <g transform="matrix(1.14492e-16,-4.43421,1.86979,2.71517e-16,15.7393,2479.23)">
                <g transform="matrix(0.622379,0,0,0.622379,168.904,114.616)">
                    <path d="M481.817,293.715L481.817,394.742C481.817,403.921 474.365,411.373 465.186,411.373L364.159,411.373C354.98,411.373 347.528,403.921 347.528,394.742L347.528,293.715C347.528,284.536 354.98,277.084 364.159,277.084L465.186,277.084C474.365,277.084 481.817,284.536 481.817,293.715Z" style="fill:white;"/>
                </g>
                <g transform="matrix(0.8139,0,0,0.8139,78.215,62.9898)">
                    <path d="M428.52,309.107L445.949,339.294L411.091,339.294L428.52,309.107Z"/>
                </g>
            </g>
            <g transform="matrix(2.84488,0,0,2.75976,-988.676,-367.291)">
                <path d="M481.817,293.715L481.817,394.742C481.817,403.921 478.769,411.373 475.014,411.373L354.331,411.373C350.576,411.373 347.528,403.921 347.528,394.742L347.528,293.715C347.528,284.536 350.576,277.084 354.331,277.084L475.014,277.084C478.769,277.084 481.817,284.536 481.817,293.715Z" style="fill:white;"/>
            </g>
            <g transform="matrix(4.93676,0,0,11.7075,-1789.13,-3101.56)">
                <g transform="matrix(12,0,0,12,368.847,324.222)">
                    <path d="M0.25,-0.7C0.14,-0.7 0.05,-0.61 0.05,-0.5C0.05,-0.391 0.14,-0.3 0.25,-0.3L0.35,-0.3C0.41,-0.3 0.45,-0.26 0.45,-0.2C0.45,-0.14 0.41,-0.1 0.35,-0.1L0.23,-0.1C0.18,-0.1 0.15,-0.13 0.12,-0.16L0.05,-0.09C0.09,-0.04 0.16,-0 0.23,-0L0.35,-0C0.459,-0 0.55,-0.09 0.55,-0.2C0.55,-0.309 0.46,-0.4 0.35,-0.4L0.25,-0.4C0.19,-0.4 0.15,-0.44 0.15,-0.5C0.15,-0.559 0.19,-0.6 0.25,-0.6L0.34,-0.6C0.39,-0.6 0.42,-0.57 0.45,-0.54L0.52,-0.61C0.48,-0.66 0.41,-0.7 0.34,-0.7L0.25,-0.7Z" style="fill-rule:nonzero;"/>
                </g>
                <g transform="matrix(12,0,0,12,377.247,324.222)">
                    <path d="M0.44,-0.7L0.44,-0.4L0.15,-0.4L0.15,-0.7L0.05,-0.7L0.05,-0L0.15,-0L0.15,-0.3L0.44,-0.3L0.44,-0L0.54,-0L0.54,-0.7L0.44,-0.7Z" style="fill-rule:nonzero;"/>
                </g>
                <g transform="matrix(12,0,0,12,385.527,324.222)">
                    <rect x="0.05" y="-0.7" width="0.1" height="0.7" style="fill-rule:nonzero;"/>
                </g>
                <g transform="matrix(12,0,0,12,389.127,324.222)">
                    <path d="M0.54,-0.6L0.54,-0.7L0.05,-0.7L0.05,-0L0.15,-0L0.15,-0.3L0.54,-0.3L0.54,-0.4L0.15,-0.4L0.15,-0.6L0.54,-0.6Z" style="fill-rule:nonzero;"/>
                </g>
                <g transform="matrix(12,0,0,12,397.407,324.222)">
                    <path d="M0.54,-0.7L0.05,-0.7L0.05,-0.6L0.25,-0.6L0.25,-0L0.35,-0L0.35,-0.6L0.54,-0.6L0.54,-0.7Z" style="fill-rule:nonzero;"/>
                </g>
            </g>
        </g>
    </g>
</svg>
