# Blender 4.1.1
# www.blender.org
mtllib prop-food-stand-1_004.mtl
o prop-food-stand-1.004
v 1.086083 1.036612 0.313338
v -1.086083 1.036612 0.313338
v 1.086083 1.033610 -0.578964
v -1.086083 1.033610 -0.578964
v 0.827093 0.238748 0.212392
v 0.775973 0.238748 0.161272
v 0.775973 0.238748 -0.447557
v 0.827093 0.238748 -0.498677
v 0.845406 0.191461 -0.378125
v 0.896525 0.191461 -0.429245
v 0.862554 0.085208 -0.360977
v 0.913674 0.085208 -0.412097
v 0.814505 0.000000 -0.409025
v 0.865625 -0.000000 -0.460145
v 0.737441 0.000000 -0.486090
v 0.788561 -0.000000 -0.537210
v 0.689393 0.085208 -0.534139
v 0.740512 0.085208 -0.585258
v 0.706541 0.191461 -0.516990
v 0.757661 0.191461 -0.568110
v 0.706541 0.191461 0.230705
v 0.757660 0.191461 0.281824
v 0.689392 0.085208 0.247853
v 0.740512 0.085208 0.298973
v 0.737441 0.000000 0.199804
v 0.788561 0.000000 0.250924
v 0.814505 0.000000 0.122740
v 0.865625 0.000000 0.173860
v 0.862554 0.085208 0.074691
v 0.913674 0.085208 0.125811
v 0.845406 0.191461 0.091840
v 0.896525 0.191461 0.142959
v -0.827093 0.238748 0.212392
v -0.775973 0.238748 0.161272
v -0.775973 0.238748 -0.447557
v -0.827093 0.238748 -0.498677
v -0.845406 0.191461 -0.378125
v -0.896525 0.191461 -0.429245
v -0.862554 0.085208 -0.360977
v -0.913674 0.085208 -0.412097
v -0.814505 0.000000 -0.409025
v -0.865625 -0.000000 -0.460145
v -0.737441 0.000000 -0.486090
v -0.788561 -0.000000 -0.537210
v -0.689393 0.085208 -0.534139
v -0.740512 0.085208 -0.585258
v -0.706541 0.191461 -0.516990
v -0.757661 0.191461 -0.568110
v -0.706541 0.191461 0.230705
v -0.757660 0.191461 0.281824
v -0.689392 0.085208 0.247853
v -0.740512 0.085208 0.298973
v -0.737441 0.000000 0.199804
v -0.788561 0.000000 0.250924
v -0.814505 0.000000 0.122740
v -0.865625 0.000000 0.173860
v -0.862554 0.085208 0.074691
v -0.913674 0.085208 0.125811
v -0.845406 0.191461 0.091840
v -0.896525 0.191461 0.142959
v 1.086083 0.222175 -0.576898
v 1.086083 0.225177 0.315405
v -1.086083 0.222175 -0.576898
v -1.086083 0.225177 0.315405
v 1.037071 1.294940 -0.238579
v -1.037071 1.294940 -0.238579
v 1.037071 1.291938 -0.578964
v -1.037071 1.291938 -0.578964
v 0.979159 1.396744 -0.238921
v 0.979159 1.393742 -0.579307
v -0.979159 1.396744 -0.238921
v -0.979159 1.393742 -0.579307
v -1.086084 1.294940 -0.238579
v -1.086084 1.291938 -0.578964
v -1.086084 1.396744 -0.238921
v -1.086084 1.393742 -0.579307
v -1.037071 1.027828 0.196941
v -1.037071 1.024826 -0.578964
v -1.086084 1.027828 0.196941
v -1.086084 1.024826 -0.578964
v 0.000000 1.033610 -0.578964
v 0.000000 1.036612 0.313338
v 0.000000 0.222175 -0.576898
v 0.000000 0.225177 0.315405
v 0.000000 1.291938 -0.578964
v 0.000000 1.294940 -0.238579
v 0.000000 1.393742 -0.579307
v 0.000000 1.396744 -0.238921
v 1.086084 1.294940 -0.238579
v 1.086084 1.291938 -0.578964
v 1.086084 1.396744 -0.238921
v 1.086084 1.393742 -0.579307
v 1.037071 1.027828 0.196941
v 1.037071 1.024826 -0.578964
v 1.086084 1.027828 0.196941
v 1.086084 1.024826 -0.578964
v 0.835873 0.973532 -0.348192
v 0.835873 2.407683 -0.348192
v 0.875419 0.973532 -0.367237
v 0.875419 2.407683 -0.367237
v 0.885186 0.973532 -0.410029
v 0.885186 2.407683 -0.410029
v 0.857819 0.973531 -0.444346
v 0.857819 2.407683 -0.444346
v 0.813926 0.973532 -0.444346
v 0.813926 2.407683 -0.444346
v 0.786559 0.973532 -0.410029
v 0.786559 2.407683 -0.410029
v 0.796326 0.973532 -0.367237
v 0.796327 2.407683 -0.367237
v 0.835873 2.633643 -0.298420
v 0.914332 2.633643 -0.336204
v 0.933710 2.633643 -0.421104
v 0.879414 2.633643 -0.489188
v 0.792331 2.633643 -0.489188
v 0.738036 2.633643 -0.421104
v 0.757414 2.633643 -0.336204
v 0.359139 2.540998 -0.507583
v 0.623691 2.540998 -0.839321
v 0.453557 2.540998 -0.093912
v 1.218134 2.540998 -0.093912
v 0.835846 2.540998 0.090189
v 1.312552 2.540998 -0.507583
v 1.048000 2.540998 -0.839321
v -0.041304 2.399144 -0.598986
v 0.445475 2.399144 -1.209387
v 0.132426 2.399144 0.162173
v 1.539255 2.399144 0.162173
v 0.835843 2.399144 0.500921
v 1.712986 2.399144 -0.598986
v 1.226207 2.399144 -1.209387
v -0.203818 2.129713 -0.636077
v 0.373149 2.129713 -1.359570
v 0.002100 2.129713 0.266104
v 1.669578 2.129713 0.266104
v 0.835841 2.129713 0.667613
v 1.875496 2.129713 -0.636077
v 1.298529 2.129713 -1.359570
v -0.203818 1.963720 -0.636077
v 0.373149 1.963720 -1.359570
v 0.002100 1.963720 0.266104
v 1.669578 1.963720 0.266104
v 0.835841 1.963720 0.667613
v 1.875496 1.963720 -0.636077
v 1.298529 1.963720 -1.359570
vn -0.0000 -0.0025 -1.0000
vn -0.0000 0.0034 1.0000
vn 1.0000 -0.0000 -0.0000
vn -1.0000 -0.0000 -0.0000
vn -0.5528 -0.6235 -0.5528
vn 0.6894 0.2225 -0.6894
vn -0.6894 0.2225 0.6894
vn 0.7071 -0.0000 -0.7071
vn 0.5528 -0.6235 -0.5528
vn -0.7071 -0.0000 0.7071
vn 0.6894 0.2225 0.6894
vn -0.3068 0.9010 0.3068
vn 0.7071 -0.0000 0.7071
vn -0.6894 0.2225 -0.6894
vn 0.3068 0.9010 -0.3068
vn 0.3068 0.9010 0.3068
vn -0.7071 -0.0000 -0.7071
vn -0.0000 -1.0000 -0.0000
vn -0.5528 -0.6235 0.5528
vn -0.3068 0.9010 -0.3068
vn 0.5528 -0.6235 0.5528
vn -0.0000 -0.0034 -1.0000
vn -0.0000 1.0000 -0.0088
vn -0.0000 -1.0000 0.0039
vn -0.0000 0.8524 0.5228
vn -0.0000 -0.0000 -1.0000
vn -0.0000 -1.0000 0.0088
vn -0.0000 -1.0000 0.0034
vn -0.0000 0.0025 1.0000
vn -0.0000 1.0000 -0.0034
vn -0.0000 1.0000 -0.0000
vn -0.7818 -0.0000 -0.6235
vn 0.9749 -0.0000 0.2225
vn -0.9749 -0.0000 0.2225
vn 0.4339 -0.0000 0.9010
vn -0.4339 -0.0000 0.9010
vn 0.7818 -0.0000 -0.6235
vn -0.1553 0.9337 0.3225
vn -0.1110 0.9667 0.2305
vn -0.0000 0.9667 -0.2558
vn 0.1110 0.9667 0.2305
vn -0.2000 0.9667 -0.1595
vn 0.2000 0.9667 -0.1595
vn 0.2494 0.9667 0.0569
vn -0.2494 0.9667 0.0569
vn -0.6829 0.4869 -0.5446
vn -0.0000 0.9338 -0.3579
vn 0.1553 0.9337 0.3225
vn -0.2798 0.9338 -0.2232
vn 0.2798 0.9337 -0.2232
vn 0.3490 0.9337 0.0796
vn -0.3490 0.9337 0.0796
vn 0.6829 0.4869 -0.5446
vn 0.8516 0.4869 0.1944
vn -0.8516 0.4869 0.1944
vn -0.3790 0.4869 0.7870
vn -0.0000 0.4869 -0.8735
vn 0.3790 0.4869 0.7870
vt 0.814529 0.446164
vt 0.836724 0.445116
vt 0.836623 0.477922
vt 0.814462 0.477198
vt 0.794569 0.476548
vt 0.794610 0.447104
vt 0.806176 0.485864
vt 0.805306 0.485815
vt 0.805297 0.489467
vt 0.807200 0.489592
vt 0.794578 0.485907
vt 0.794570 0.489593
vt 0.866428 0.445754
vt 0.866292 0.477681
vt 0.417951 0.469898
vt 0.417951 0.490136
vt 0.412168 0.490136
vt 0.412168 0.469898
vt 0.406386 0.469898
vt 0.406386 0.490136
vt 0.822287 0.476364
vt 0.822358 0.447630
vt 0.435299 0.469898
vt 0.435299 0.490136
vt 0.429516 0.490136
vt 0.429516 0.469898
vt 0.418318 0.465835
vt 0.420194 0.457616
vt 0.414938 0.451025
vt 0.406508 0.451025
vt 0.401252 0.457616
vt 0.403128 0.465835
vt 0.410723 0.469493
vt 0.441081 0.469898
vt 0.441081 0.490136
vt 0.400603 0.469898
vt 0.400603 0.490136
vt 0.430962 0.469493
vt 0.423366 0.465835
vt 0.421491 0.457616
vt 0.426747 0.451025
vt 0.435177 0.451025
vt 0.440433 0.457616
vt 0.438557 0.465835
vt 0.423734 0.469898
vt 0.423734 0.490136
vt 0.814462 0.487061
vt 0.814451 0.490946
vt 0.796437 0.489720
vt 0.795431 0.485956
vt 0.676288 0.463104
vt 0.674385 0.462979
vt 0.663658 0.463105
vt 0.665524 0.463232
vt 0.795423 0.476257
vt 0.794569 0.476230
vt 0.818747 0.476090
vt 0.819638 0.476116
vt 0.835560 0.488286
vt 0.834307 0.492297
vt 0.847044 0.488159
vt 0.845768 0.492130
vt 0.848100 0.492283
vt 0.848116 0.488219
vt 0.836614 0.488347
vt 0.836599 0.492453
vt 0.714856 0.465642
vt 0.703394 0.465809
vt 0.705686 0.465965
vt 0.717187 0.465795
vt 0.862513 0.477380
vt 0.861418 0.477348
vt 0.835569 0.477533
vt 0.836623 0.477567
vt 0.694643 0.464312
vt 0.683539 0.464458
vt 0.825568 0.486953
vt 0.825556 0.490800
vt 0.843233 0.446741
vt 0.843133 0.476988
vt 0.710929 0.444061
vt 0.687769 0.443368
vt 0.659099 0.443578
vt 0.681260 0.444302
vt 0.666924 0.442745
vt 0.639206 0.442928
vt 0.929110 0.494105
vt 0.922452 0.494343
vt 0.921728 0.494735
vt 0.927592 0.494986
vt 0.935619 0.494901
vt 0.939653 0.494547
vt 0.936721 0.494195
vt 0.928539 0.429019
vt 0.936458 0.429052
vt 0.930020 0.429362
vt 0.923454 0.429269
vt 0.940432 0.429190
vt 0.937533 0.429327
vt 0.922748 0.429117
vt 0.445426 0.480562
vt 0.444914 0.480119
vt 0.444175 0.670450
vt 0.444700 0.669313
vt 0.455634 0.480729
vt 0.457736 0.480331
vt 0.454855 0.479931
vt 0.449113 0.479835
vt 0.450187 0.480830
vt 0.441957 0.296604
vt 0.442533 0.299126
vt 0.440920 0.301148
vt 0.438333 0.301148
vt 0.436721 0.299126
vt 0.437296 0.296604
vt 0.439627 0.295482
vt 0.428271 0.289408
vt 0.418733 0.281802
vt 0.439626 0.271741
vt 0.439626 0.283940
vt 0.445927 0.311547
vt 0.433325 0.311547
vt 0.450980 0.289408
vt 0.425467 0.301694
vt 0.453784 0.301694
vt 0.428032 0.322538
vt 0.425883 0.326999
vt 0.408747 0.305511
vt 0.413575 0.304409
vt 0.451220 0.322538
vt 0.460517 0.281802
vt 0.465677 0.304409
vt 0.470504 0.305511
vt 0.453368 0.326999
vt 0.464389 0.278716
vt 0.414864 0.278716
vt 0.439626 0.266790
s 0
usemtl everything.001
f 83/1/1 63/2/1 4/3/1 81/4/1
f 83/1/1 81/4/1 3/5/1 61/6/1
f 65/7/2 89/8/2 91/9/2 69/10/2
f 90/11/3 92/12/3 91/9/3 89/8/3
f 63/2/4 64/13/4 2/14/4 4/3/4
f 55/15/5 56/16/5 58/17/5 57/18/5
f 29/18/6 31/19/6 32/20/6 30/17/6
f 61/6/3 3/5/3 1/21/3 62/22/3
f 37/23/7 38/24/7 40/25/7 39/26/7
f 10/27/8 12/28/8 14/29/8 16/30/8 18/31/8 20/32/8 8/33/8
f 27/15/9 29/18/9 30/17/9 28/16/9
f 50/27/10 33/33/10 60/32/10 58/31/10 56/30/10 54/29/10 52/28/10
f 15/15/5 17/18/5 18/17/5 16/16/5
f 9/23/11 11/26/11 12/25/11 10/24/11
f 6/34/12 21/23/12 22/24/12 5/35/12
f 21/23/7 23/26/7 24/25/7 22/24/7
f 22/27/13 24/28/13 26/29/13 28/30/13 30/31/13 32/32/13 5/33/13
f 17/18/14 19/19/14 20/20/14 18/17/14
f 31/19/15 6/36/15 5/37/15 32/20/15
f 7/34/16 9/23/16 10/24/16 8/35/16
f 6/38/17 31/39/17 29/40/17 27/41/17 25/42/17 23/43/17 21/44/17
f 13/45/18 15/15/18 16/16/18 14/46/18
f 23/26/19 25/45/19 26/46/19 24/25/19
f 35/34/12 36/35/12 38/24/12 37/23/12
f 19/19/20 7/36/20 8/37/20 20/20/20
f 11/26/21 13/45/21 14/46/21 12/25/21
f 25/45/18 27/15/18 28/16/18 26/46/18
f 53/45/18 54/46/18 56/16/18 55/15/18
f 39/26/19 40/25/19 42/46/19 41/45/19
f 34/38/8 49/44/8 51/43/8 53/42/8 55/41/8 57/40/8 59/39/8
f 51/26/21 52/25/21 54/46/21 53/45/21
f 41/45/18 42/46/18 44/16/18 43/15/18
f 59/19/20 60/20/20 33/37/20 34/36/20
f 49/23/11 50/24/11 52/25/11 51/26/11
f 43/15/9 44/16/9 46/17/9 45/18/9
f 38/27/17 36/33/17 48/32/17 46/31/17 44/30/17 42/29/17 40/28/17
f 34/34/16 33/35/16 50/24/16 49/23/16
f 45/18/6 46/17/6 48/20/6 47/19/6
f 57/18/14 58/17/14 60/20/14 59/19/14
f 47/19/15 48/20/15 36/37/15 35/36/15
f 35/38/13 37/44/13 39/43/13 41/42/13 43/41/13 45/40/13 47/39/13
f 85/47/22 87/48/22 70/49/22 67/50/22
f 69/51/23 91/52/23 92/53/23 70/54/23
f 94/55/24 96/56/24 95/57/24 93/58/24
f 85/47/22 68/59/22 72/60/22 87/48/22
f 67/50/4 94/55/4 93/58/4 65/7/4
f 70/49/22 92/12/22 90/11/22 67/50/22
f 66/61/2 71/62/2 75/63/2 73/64/2
f 74/65/4 73/64/4 75/63/4 76/66/4
f 71/67/23 72/68/23 76/69/23 75/70/23
f 66/61/25 73/64/25 79/71/25 77/72/25
f 72/60/22 68/59/22 74/65/22 76/66/22
f 78/73/24 77/72/24 79/71/24 80/74/24
f 68/59/3 66/61/3 77/72/3 78/73/3
f 73/64/4 74/65/4 80/74/4 79/71/4
f 74/65/26 68/59/26 78/73/26 80/74/26
f 71/67/23 88/75/23 87/76/23 72/68/23
f 66/61/2 86/77/2 88/78/2 71/62/2
f 66/61/27 68/59/27 85/47/27 86/77/27
f 65/7/25 93/58/25 95/57/25 89/8/25
f 64/13/28 63/2/28 83/1/28 84/79/28
f 64/13/29 84/79/29 82/80/29 2/14/29
f 7/38/10 19/39/10 17/40/10 15/41/10 13/42/10 11/43/10 9/44/10
f 2/81/30 82/82/30 81/83/30 4/84/30
f 89/8/3 95/57/3 96/56/3 90/11/3
f 90/11/26 96/56/26 94/55/26 67/50/26
f 69/51/23 70/54/23 87/76/23 88/75/23
f 65/7/2 69/10/2 88/78/2 86/77/2
f 65/7/27 86/77/27 85/47/27 67/50/27
f 62/22/28 84/79/28 83/1/28 61/6/28
f 62/22/29 1/21/29 82/80/29 84/79/29
f 1/85/30 3/86/30 81/83/30 82/82/30
f 100/87/31 102/88/31 104/89/31 106/90/31 108/91/31 110/92/31 98/93/31
f 105/94/32 107/95/32 108/91/32 106/90/32
f 99/96/33 101/97/33 102/88/33 100/87/33
f 107/95/34 109/98/34 110/92/34 108/91/34
f 97/99/35 99/96/35 100/87/35 98/93/35
f 103/100/26 105/94/26 106/90/26 104/89/26
f 109/98/36 97/99/36 98/93/36 110/92/36
f 101/101/37 103/102/37 104/103/37 102/104/37
f 97/105/18 109/106/18 107/107/18 105/108/18 103/102/18 101/101/18 99/109/18
f 112/110/31 113/111/31 114/112/31 115/113/31 116/114/31 117/115/31 111/116/31
f 120/117/38 127/118/38 129/119/38 122/120/38
f 117/115/39 120/117/39 122/120/39 111/116/39
f 114/112/40 124/121/40 119/122/40 115/113/40
f 111/116/41 122/120/41 121/123/41 112/110/41
f 115/113/42 119/122/42 118/124/42 116/114/42
f 113/111/43 123/125/43 124/121/43 114/112/43
f 112/110/44 121/123/44 123/125/44 113/111/44
f 116/114/45 118/124/45 120/117/45 117/115/45
f 126/126/46 133/127/46 132/128/46 125/129/46
f 124/121/47 131/130/47 126/126/47 119/122/47
f 122/120/48 129/119/48 128/131/48 121/123/48
f 119/122/49 126/126/49 125/129/49 118/124/49
f 123/125/50 130/132/50 131/130/50 124/121/50
f 121/123/51 128/131/51 130/132/51 123/125/51
f 118/124/52 125/129/52 127/118/52 120/117/52
f 130/132/53 137/133/53 138/134/53 131/130/53
f 128/131/54 135/135/54 137/133/54 130/132/54
f 125/129/55 132/128/55 134/136/55 127/118/55
f 127/118/56 134/136/56 136/137/56 129/119/56
f 131/130/57 138/134/57 133/127/57 126/126/57
f 129/119/58 136/137/58 135/135/58 128/131/58
f 134/136/34 132/128/34 139/128/34 141/136/34
f 136/137/36 134/136/36 141/136/36 143/137/36
f 133/127/26 138/134/26 145/134/26 140/127/26
f 135/135/35 136/137/35 143/137/35 142/135/35
f 132/128/32 133/127/32 140/127/32 139/128/32
f 138/134/37 137/133/37 144/133/37 145/134/37
f 137/133/33 135/135/33 142/135/33 144/133/33
