# Blender 4.0.1
# www.blender.org
o stop-sign
v -0.032297 0.000000 0.032298
v -0.032297 2.785302 0.032298
v -0.032297 0.000000 -0.032298
v -0.032297 2.785302 -0.032298
v 0.032297 0.000000 0.032298
v 0.032297 2.785302 0.032298
v 0.032297 0.000000 -0.032298
v 0.032297 2.785302 -0.032298
v 0.408720 2.034843 0.041810
v 0.408720 2.852284 0.041810
v -0.408720 2.034843 0.041810
v -0.408720 2.852284 0.041810
v -0.408720 2.034843 0.048582
v -0.408720 2.852284 0.048582
v 0.408720 2.034843 0.048582
v 0.408720 2.852284 0.048582
vn -1.0000 -0.0000 -0.0000
vn -0.0000 -0.0000 -1.0000
vn 1.0000 -0.0000 -0.0000
vn -0.0000 -0.0000 1.0000
vn -0.0000 -1.0000 -0.0000
vn -0.0000 1.0000 -0.0000
vt 0.676633 0.426258
vt 0.676633 0.475480
vt 0.675492 0.475480
vt 0.675492 0.426258
vt 0.674350 0.475480
vt 0.674350 0.426258
vt 0.673209 0.475480
vt 0.673209 0.426258
vt 0.672067 0.475480
vt 0.672067 0.426258
vt 0.670926 0.474339
vt 0.672067 0.474339
vt 0.670926 0.475480
vt 0.670926 0.473197
vt 0.672067 0.473197
vt 0.861821 0.601809
vt 0.777503 0.601809
vt 0.777503 0.517491
vt 0.861821 0.517491
vt 0.947268 0.601325
vt 0.863359 0.601325
vt 0.863359 0.517415
vt 0.947268 0.517415
s 0
f 1/1/1 2/2/1 4/3/1 3/4/1
f 3/4/2 4/3/2 8/5/2 7/6/2
f 7/6/3 8/5/3 6/7/3 5/8/3
f 5/8/4 6/7/4 2/9/4 1/10/4
f 3/11/5 7/12/5 5/9/5 1/13/5
f 8/14/6 4/15/6 2/12/6 6/11/6
f 12/16/2 10/17/2 9/18/2 11/19/2
f 16/20/4 14/21/4 13/22/4 15/23/4
