# Blender 4.0.1
# www.blender.org
o street-lamp
v -0.000000 0.000000 -0.111196
v -0.000000 7.509069 -0.073466
v 0.086936 0.000000 -0.069330
v 0.057438 7.509069 -0.045806
v 0.108408 0.000000 0.024743
v 0.071624 7.509069 0.016348
v 0.048246 0.000000 0.100184
v 0.031876 7.509069 0.066191
v -0.048246 0.000000 0.100184
v -0.031876 7.509069 0.066191
v -0.108408 0.000000 0.024743
v -0.071624 7.509069 0.016348
v -0.086936 0.000000 -0.069330
v -0.057438 7.509069 -0.045806
v 0.055492 7.483585 0.272478
v 1.478707 8.207085 0.272478
v 0.055492 7.483585 -0.272478
v 1.478707 8.207085 -0.272478
v 0.199788 7.405986 0.179013
v 1.456369 8.044777 0.179013
v 0.199788 7.405986 -0.179013
v 1.456369 8.044777 -0.179013
v 0.000000 7.489465 -0.113180
v 0.088488 7.489465 -0.070567
v 0.110343 7.489465 0.025185
v 0.049107 7.489465 0.101972
v -0.049107 7.489465 0.101972
v -0.110342 7.489465 0.025185
v -0.088488 7.489465 -0.070567
v 0.088487 7.345628 -0.070567
v -0.000000 7.345628 -0.113180
v 0.110342 7.345628 0.025185
v 0.049107 7.345628 0.101972
v -0.049107 7.345628 0.101972
v -0.110343 7.345628 0.025185
v -0.088488 7.345628 -0.070567
v 1.539686 8.087132 -0.272478
v 0.116471 7.363632 -0.272478
v 0.116471 7.363632 0.272478
v 1.539686 8.087132 0.272478
v -0.000000 0.014180 -0.382506
v 0.299055 0.014180 -0.238488
v 0.372915 0.014180 0.085115
v 0.165963 0.014180 0.344626
v -0.165963 0.014180 0.344626
v -0.372915 0.014180 0.085115
v -0.299055 0.014180 -0.238488
v -0.000000 0.114199 -0.382506
v 0.299055 0.114199 -0.238488
v 0.372915 0.114199 0.085115
v 0.165963 0.114199 0.344626
v -0.165963 0.114199 0.344626
v -0.372915 0.114199 0.085115
v -0.299055 0.114199 -0.238488
vn 0.4339 0.0045 -0.9010
vn 0.9749 0.0045 -0.2225
vn 0.7818 0.0045 0.6235
vn -0.0000 0.0045 1.0000
vn -0.7818 0.0045 0.6235
vn -0.0000 1.0000 -0.0000
vn -0.9749 0.0045 -0.2225
vn -0.4339 0.0045 -0.9010
vn -0.0000 -1.0000 -0.0000
vn -0.4532 0.8914 -0.0000
vn -0.0000 -0.0000 -1.0000
vn 0.4532 -0.8914 -0.0000
vn -0.0000 -0.0000 1.0000
vn -0.8914 -0.4532 -0.0000
vn 0.8914 0.4532 -0.0000
vn 0.7818 -0.0000 0.6235
vn 0.4339 -0.0000 -0.9010
vn -0.9749 -0.0000 -0.2225
vn 0.9749 -0.0000 -0.2225
vn -0.4339 -0.0000 -0.9010
vn -0.7818 -0.0000 0.6235
vt 0.918301 0.417243
vt 0.918301 0.500420
vt 0.916772 0.500420
vt 0.916772 0.417243
vt 0.915242 0.500420
vt 0.915242 0.417243
vt 0.913713 0.500420
vt 0.913713 0.417243
vt 0.912183 0.500420
vt 0.912183 0.417243
vt 0.910654 0.500420
vt 0.910654 0.417243
vt 0.902830 0.439611
vt 0.893152 0.444271
vt 0.883474 0.439611
vt 0.881084 0.429138
vt 0.887781 0.420740
vt 0.898523 0.420740
vt 0.905220 0.429138
vt 0.909125 0.500420
vt 0.909125 0.417243
vt 0.907595 0.500420
vt 0.907595 0.417243
vt 0.918941 0.444271
vt 0.928618 0.439611
vt 0.931009 0.429138
vt 0.924311 0.420740
vt 0.913570 0.420740
vt 0.906873 0.429138
vt 0.909263 0.439611
vt 0.940483 0.444534
vt 0.934271 0.433236
vt 0.947871 0.422468
vt 0.956861 0.438819
vt 0.927774 0.455658
vt 0.946433 0.455659
vt 0.948790 0.459102
vt 0.925417 0.459102
vt 0.090223 0.222144
vt 0.110859 0.222144
vt 0.110859 0.237500
vt 0.090223 0.237500
vt 0.925417 0.482475
vt 0.948790 0.482475
vt 0.946433 0.485919
vt 0.927774 0.485919
vt 0.921974 0.461459
vt 0.921974 0.480118
vt 0.952234 0.461459
vt 0.952234 0.480118
vt 0.933887 0.459165
vt 0.924210 0.463826
vt 0.914532 0.459165
vt 0.912142 0.448693
vt 0.918839 0.440295
vt 0.929580 0.440295
vt 0.936278 0.448693
vt 0.947422 0.463111
vt 0.926786 0.463111
vt 0.926786 0.478466
vt 0.947422 0.478466
s 0
f 1/1/1 2/2/1 4/3/1 3/4/1
f 3/4/2 4/3/2 6/5/2 5/6/2
f 5/6/3 6/5/3 8/7/3 7/8/3
f 7/8/4 8/7/4 10/9/4 9/10/4
f 9/10/5 10/9/5 12/11/5 11/12/5
f 4/13/6 2/14/6 14/15/6 12/16/6 10/17/6 8/18/6 6/19/6
f 11/12/7 12/11/7 14/20/7 13/21/7
f 13/21/8 14/20/8 2/22/8 1/23/8
f 1/24/9 3/25/9 5/26/9 7/27/9 9/28/9 11/29/9 13/30/9
f 15/31/10 16/32/10 18/33/10 17/34/10
f 17/35/11 18/36/11 37/37/11 38/38/11
f 21/39/12 22/40/12 20/41/12 19/42/12
f 39/43/13 40/44/13 16/45/13 15/46/13
f 17/47/14 38/38/14 39/43/14 15/48/14
f 37/37/15 18/49/15 16/50/15 40/44/15
f 24/51/6 23/52/6 29/53/6 28/54/6 27/55/6 26/56/6 25/57/6
f 30/51/9 32/57/9 33/56/9 34/55/9 35/54/9 36/53/9 31/52/9
f 26/56/16 33/56/16 32/57/16 25/57/16
f 24/51/17 30/51/17 31/52/17 23/52/17
f 29/53/18 36/53/18 35/54/18 28/54/18
f 27/55/13 34/55/13 33/56/13 26/56/13
f 25/57/19 32/57/19 30/51/19 24/51/19
f 23/52/20 31/52/20 36/53/20 29/53/20
f 28/54/21 35/54/21 34/55/21 27/55/21
f 22/58/12 21/59/12 38/38/12 37/37/12
f 21/59/12 19/60/12 39/43/12 38/38/12
f 20/61/12 22/58/12 37/37/12 40/44/12
f 19/60/12 20/61/12 40/44/12 39/43/12
f 41/24/9 42/25/9 43/26/9 44/27/9 45/28/9 46/29/9 47/30/9
f 48/24/6 54/30/6 53/29/6 52/28/6 51/27/6 50/26/6 49/25/6
f 43/26/16 50/26/16 51/27/16 44/27/16
f 41/24/17 48/24/17 49/25/17 42/25/17
f 46/29/18 53/29/18 54/30/18 47/30/18
f 44/27/13 51/27/13 52/28/13 45/28/13
f 42/25/19 49/25/19 50/26/19 43/26/19
f 47/30/20 54/30/20 48/24/20 41/24/20
f 45/28/21 52/28/21 53/29/21 46/29/21
