# Blender 4.0.1
# www.blender.org
o traffic-cone
v 0.000000 0.000000 -0.292579
v 0.000000 0.019332 -0.292579
v 0.228747 0.000000 -0.182420
v 0.228747 0.019332 -0.182420
v 0.285243 0.000000 0.065105
v 0.285243 0.019332 0.065105
v 0.126945 0.000000 0.263604
v 0.126945 0.019332 0.263604
v -0.126945 0.000000 0.263604
v -0.126945 0.019332 0.263604
v -0.285243 0.000000 0.065105
v -0.285243 0.019332 0.065105
v -0.228747 0.000000 -0.182420
v -0.228747 0.019332 -0.182420
v 0.000000 0.029766 -0.188214
v 0.000000 0.959626 -0.037529
v 0.147152 0.029766 -0.117350
v 0.029341 0.959626 -0.023399
v 0.183495 0.029766 0.041882
v 0.036588 0.959626 0.008351
v 0.081663 0.029766 0.169575
v 0.016283 0.959626 0.033812
v -0.081663 0.029766 0.169575
v -0.016283 0.959626 0.033812
v -0.183495 0.029766 0.041882
v -0.036588 0.959626 0.008351
v -0.147152 0.029766 -0.117350
v -0.029341 0.959626 -0.023399
vn -0.0000 -0.0000 -1.0000
vn 0.7818 -0.0000 -0.6235
vn 0.9749 -0.0000 0.2225
vn 0.4339 -0.0000 0.9010
vn -0.4339 -0.0000 0.9010
vn -0.9749 -0.0000 0.2225
vn -0.0000 1.0000 -0.0000
vn -0.7818 -0.0000 -0.6235
vn -0.0000 -1.0000 -0.0000
vn -0.0000 0.1600 -0.9871
vn 0.7718 0.1600 -0.6155
vn 0.9624 0.1600 0.2197
vn 0.4283 0.1600 0.8894
vn -0.4283 0.1600 0.8894
vn -0.9624 0.1600 0.2197
vn -0.7718 0.1600 -0.6155
vt 0.970888 0.534385
vt 0.970888 0.534074
vt 0.972397 0.534074
vt 0.972397 0.534385
vt 0.973905 0.534074
vt 0.973905 0.534385
vt 0.963346 0.534385
vt 0.963346 0.534074
vt 0.964855 0.534074
vt 0.964855 0.534385
vt 0.966363 0.534074
vt 0.966363 0.534385
vt 0.967871 0.534074
vt 0.967871 0.534385
vt 0.967570 0.544343
vt 0.966284 0.545956
vt 0.964222 0.545956
vt 0.962936 0.544343
vt 0.963395 0.542333
vt 0.965253 0.541438
vt 0.967111 0.542333
vt 0.969380 0.534074
vt 0.969380 0.534385
vt 0.968856 0.541438
vt 0.970919 0.541438
vt 0.972205 0.543050
vt 0.971746 0.545061
vt 0.969888 0.545956
vt 0.968029 0.545061
vt 0.967570 0.543050
vt 0.965938 0.539596
vt 0.970367 0.600122
vt 0.969765 0.600306
vt 0.963269 0.540412
vt 0.969163 0.600583
vt 0.960602 0.541637
vt 0.979285 0.541637
vt 0.973377 0.600582
vt 0.972775 0.600306
vt 0.976617 0.540412
vt 0.972173 0.600122
vt 0.973948 0.539596
vt 0.971571 0.600030
vt 0.971278 0.539187
vt 0.973603 0.540324
vt 0.974723 0.540864
vt 0.975000 0.542077
vt 0.974224 0.543049
vt 0.972980 0.543049
vt 0.972205 0.542077
vt 0.972482 0.540864
vt 0.970969 0.600030
vt 0.968608 0.539187
vt 0.973032 0.543049
vt 0.974359 0.543049
vt 0.975186 0.544087
vt 0.974891 0.545380
vt 0.973696 0.545956
vt 0.972500 0.545380
vt 0.972205 0.544087
s 1
f 1/1/1 2/2/1 4/3/2 3/4/2
f 3/4/2 4/3/2 6/5/3 5/6/3
f 5/7/3 6/8/3 8/9/4 7/10/4
f 7/10/4 8/9/4 10/11/5 9/12/5
f 9/12/5 10/11/5 12/13/6 11/14/6
f 4/15/7 2/16/7 14/17/7 12/18/7 10/19/7 8/20/7 6/21/7
f 11/14/6 12/13/6 14/22/8 13/23/8
f 13/23/8 14/22/8 2/2/1 1/1/1
f 1/24/9 3/25/9 5/26/9 7/27/9 9/28/9 11/29/9 13/30/9
f 15/31/10 16/32/10 18/33/11 17/34/11
f 17/34/11 18/33/11 20/35/12 19/36/12
f 19/37/12 20/38/12 22/39/13 21/40/13
f 21/40/13 22/39/13 24/41/14 23/42/14
f 23/42/14 24/41/14 26/43/15 25/44/15
f 18/45/7 16/46/7 28/47/7 26/48/7 24/49/7 22/50/7 20/51/7
f 25/44/15 26/43/15 28/52/16 27/53/16
f 27/53/16 28/52/16 16/32/10 15/31/10
f 15/54/9 17/55/9 19/56/9 21/57/9 23/58/9 25/59/9 27/60/9
