# Blender 4.0.1
# www.blender.org
mtllib tree.mtl
o tree
v 0.004543 0.016138 -0.097321
v -0.019871 0.516954 -0.086112
v 0.067707 0.013504 -0.063911
v 0.032482 0.514804 -0.069544
v 0.075219 0.011831 -0.005074
v 0.046247 0.520969 -0.000989
v 0.034305 0.009410 0.049635
v 0.009796 0.515708 0.046213
v -0.028810 0.020446 0.051729
v -0.053230 0.514876 0.045625
v -0.070131 0.014128 0.004719
v -0.092311 0.514542 -0.002783
v -0.057004 0.015122 -0.067632
v -0.077807 0.515699 -0.064158
v 0.007468 1.082188 -0.100464
v 0.070446 1.078174 -0.064563
v 0.085446 1.080253 0.002663
v 0.045404 1.085447 0.052703
v -0.028751 1.086105 0.050002
v -0.071018 1.085153 0.001609
v -0.050512 1.085447 -0.070854
v 0.007050 1.662883 -0.097400
v 0.067559 1.672654 -0.069425
v 0.083905 1.666541 -0.007211
v 0.048202 1.671212 0.046697
v -0.019625 1.670942 0.041626
v -0.057964 1.670297 -0.007685
v -0.048606 1.674510 -0.066514
v 0.014964 2.342271 -0.077858
v 0.062819 2.338568 -0.055442
v 0.070813 2.339811 -0.008912
v 0.037405 2.338780 0.032803
v -0.006090 2.333220 0.028322
v -0.035506 2.342808 -0.012870
v -0.029006 2.337074 -0.055817
v 0.009464 3.364139 -0.038167
v 0.027187 3.367362 -0.031880
v 0.036745 3.366203 -0.007522
v 0.021585 3.356743 0.017143
v -0.001449 3.353534 0.022248
v -0.011863 3.365018 -0.004669
v -0.008487 3.358526 -0.026874
v -0.018878 3.843349 -0.044324
v 0.001865 3.860507 -0.032315
v -0.002075 3.859784 -0.016393
v -0.010963 3.853874 0.001603
v -0.028953 3.843295 -0.000898
v -0.042744 3.841557 -0.016379
v -0.035943 3.840607 -0.039003
v -0.418194 1.433007 -0.000000
v 0.563645 1.525567 -0.000000
v -0.208940 5.231316 0.000000
v 0.301500 5.363545 0.000000
v -0.874971 2.134572 -0.000000
v 1.032469 2.081681 -0.000000
v 1.166439 2.796065 -0.000000
v -1.045127 2.848956 -0.000000
v 0.952991 3.780878 0.000000
v -0.808997 3.807323 0.000000
v 0.667695 4.459423 0.000000
v -0.598768 4.459423 0.000000
v 0.060813 1.433007 0.479007
v 0.060813 1.525567 -0.502832
v 0.060813 5.231316 0.269753
v 0.060813 5.363544 -0.240687
v 0.060813 2.134572 0.935784
v 0.060813 2.081681 -0.971656
v 0.060813 2.796065 -1.105626
v 0.060813 2.848956 1.105940
v 0.060813 3.780878 -0.892178
v 0.060813 3.807323 0.869810
v 0.060813 4.459423 -0.606882
v 0.060813 4.459423 0.659581
v -0.418194 1.433007 -0.031838
v 0.563645 1.525567 -0.031838
v -0.208940 5.231316 -0.031838
v 0.301500 5.363545 -0.031838
v -0.874971 2.134572 -0.031838
v 1.032469 2.081681 -0.031838
v 1.166439 2.796065 -0.031838
v -1.045127 2.848956 -0.031838
v 0.952991 3.780878 -0.031838
v -0.808997 3.807323 -0.031838
v 0.667695 4.459423 -0.031838
v -0.598768 4.459423 -0.031838
v 0.011596 1.433007 0.479007
v 0.011596 1.525567 -0.502832
v 0.011597 5.231316 0.269753
v 0.011597 5.363544 -0.240687
v 0.011596 2.134572 0.935784
v 0.011596 2.081681 -0.971656
v 0.011596 2.796065 -1.105626
v 0.011596 2.848956 1.105940
v 0.011596 3.780878 -0.892178
v 0.011597 3.807323 0.869810
v 0.011597 4.459423 -0.606882
v 0.011597 4.459423 0.659581
vn 0.3979 0.0288 -0.9170
vn 0.9841 0.0623 -0.1666
vn 0.7943 0.0414 0.6061
vn 0.0128 0.0101 0.9999
vn -0.7635 -0.0269 0.6452
vn 0.4125 -0.0314 -0.9104
vn -0.9783 -0.0428 -0.2028
vn -0.3967 -0.0045 -0.9179
vn -0.0299 -0.9995 -0.0058
vn 0.8085 0.0071 0.5885
vn 0.7847 -0.0575 0.6172
vn -0.9668 0.0407 -0.2524
vn -0.0240 -0.0083 0.9997
vn -0.4064 0.0026 -0.9137
vn 0.9770 -0.0656 -0.2030
vn -0.7655 0.0257 0.6429
vn -0.9875 0.0317 -0.1543
vn 0.4594 -0.0001 -0.8882
vn -0.9751 0.0115 -0.2214
vn -0.0546 0.0128 0.9984
vn 0.9719 0.0007 -0.2353
vn -0.4693 0.0062 -0.8830
vn -0.7713 0.0242 0.6360
vn 0.0080 0.0107 0.9999
vn -0.0865 0.0205 0.9960
vn 0.9759 0.0150 -0.2178
vn -0.4675 0.0295 -0.8835
vn -0.7987 0.0299 0.6009
vn 0.8107 0.0212 0.5851
vn 0.4206 0.0216 -0.9070
vn -0.9754 -0.0646 -0.2107
vn 0.9701 0.0358 -0.2402
vn -0.4782 0.0330 -0.8776
vn -0.8616 0.0114 0.5074
vn 0.8050 0.0238 0.5928
vn 0.4009 0.0363 -0.9154
vn -0.9877 0.0241 -0.1543
vn -0.4268 0.9007 -0.0814
vn 0.0492 0.0421 0.9979
vn 0.9888 0.0630 -0.1350
vn -0.4202 -0.0416 -0.9065
vn -0.8714 -0.0350 0.4894
vn 0.8570 0.0743 0.5099
vn 0.4221 0.0171 -0.9064
vn -0.0000 -0.0000 1.0000
vn 1.0000 -0.0000 -0.0000
vn -0.0000 -0.0000 -1.0000
vn -1.0000 -0.0000 -0.0000
vt 0.728209 0.821794
vt 0.727346 0.819082
vt 0.729884 0.819093
vt 0.731533 0.821808
vt 0.725369 0.820848
vt 0.726176 0.818131
vt 0.728394 0.818103
vt 0.727388 0.820861
vt 0.731171 0.818132
vt 0.730571 0.820875
vt 0.732865 0.818132
vt 0.732370 0.820811
vt 0.718038 0.821769
vt 0.718090 0.819091
vt 0.719936 0.819093
vt 0.719800 0.821803
vt 0.728168 0.816023
vt 0.731533 0.816044
vt 0.722873 0.819087
vt 0.723226 0.821797
vt 0.726185 0.821797
vt 0.725324 0.819086
vt 0.735789 0.802807
vt 0.738683 0.802999
vt 0.738946 0.803318
vt 0.736964 0.803608
vt 0.734007 0.803608
vt 0.732162 0.803346
vt 0.732881 0.802957
vt 0.730517 0.815051
vt 0.727534 0.815079
vt 0.727275 0.811904
vt 0.730286 0.811880
vt 0.719934 0.816004
vt 0.723433 0.816002
vt 0.732434 0.815042
vt 0.726292 0.816003
vt 0.725400 0.815084
vt 0.718118 0.815998
vt 0.723253 0.812813
vt 0.720479 0.812836
vt 0.720925 0.809194
vt 0.722946 0.809225
vt 0.728153 0.812879
vt 0.731259 0.812825
vt 0.731941 0.811876
vt 0.725369 0.811865
vt 0.725324 0.816020
vt 0.725180 0.812876
vt 0.718585 0.812832
vt 0.731151 0.808291
vt 0.730137 0.808264
vt 0.730101 0.802751
vt 0.730920 0.802767
vt 0.726108 0.808261
vt 0.727650 0.808258
vt 0.724361 0.809197
vt 0.719318 0.809246
vt 0.728804 0.809200
vt 0.731267 0.809219
vt 0.721816 0.803695
vt 0.720770 0.803659
vt 0.721018 0.801079
vt 0.722114 0.801085
vt 0.728096 0.802691
vt 0.728757 0.802699
vt 0.722498 0.803664
vt 0.719638 0.803722
vt 0.729248 0.803665
vt 0.730120 0.803647
vt 0.722160 0.800977
vt 0.722516 0.801070
vt 0.720439 0.801070
vt 0.720493 0.801013
vt 0.721397 0.800981
vt 0.730461 0.800057
vt 0.730855 0.800112
vt 0.728830 0.800019
vt 0.729539 0.800024
vt 0.728709 0.803694
vt 0.727265 0.801084
vt 0.727882 0.801070
vt 0.728992 0.800977
vt 0.613814 0.947713
vt 0.653025 0.947109
vt 0.641712 0.986210
vt 0.621352 0.986210
vt 0.615970 0.753656
vt 0.661891 0.752833
vt 0.685047 0.797584
vt 0.604599 0.791008
vt 0.680405 0.822328
vt 0.598313 0.826438
vt 0.672956 0.887468
vt 0.602373 0.888290
s 0
usemtl everything
f 1/1/1 2/2/1 4/3/1 3/4/1
f 3/5/2 4/6/2 6/7/2 5/8/2
f 5/8/3 6/7/3 8/9/3 7/10/3
f 7/10/4 8/9/4 10/11/4 9/12/4
f 9/13/5 10/14/5 12/15/5 11/16/5
f 4/3/6 2/2/6 15/17/6 16/18/6
f 11/16/7 12/15/7 14/19/7 13/20/7
f 13/21/8 14/22/8 2/2/8 1/1/8
f 1/23/9 3/24/9 5/25/9 7/26/9 9/27/9 11/28/9 13/29/9
f 18/30/10 17/31/10 24/32/10 25/33/10
f 8/9/11 6/7/11 17/31/11 18/30/11
f 14/19/12 12/15/12 20/34/12 21/35/12
f 10/11/13 8/9/13 18/30/13 19/36/13
f 2/2/14 14/22/14 21/37/14 15/17/14
f 6/7/15 4/6/15 16/38/15 17/31/15
f 12/15/16 10/14/16 19/39/16 20/34/16
f 28/40/17 27/41/17 34/42/17 35/43/17
f 16/18/18 15/17/18 22/44/18 23/45/18
f 21/35/19 20/34/19 27/41/19 28/40/19
f 19/36/20 18/30/20 25/33/20 26/46/20
f 17/31/21 16/38/21 23/47/21 24/32/21
f 15/48/22 21/35/22 28/40/22 22/49/22
f 20/34/23 19/39/23 26/50/23 27/41/23
f 33/51/24 32/52/24 39/53/24 40/54/24
f 26/46/25 25/33/25 32/52/25 33/51/25
f 24/32/26 23/47/26 30/55/26 31/56/26
f 22/49/27 28/40/27 35/43/27 29/57/27
f 27/41/28 26/50/28 33/58/28 34/42/28
f 25/33/29 24/32/29 31/56/29 32/52/29
f 23/45/30 22/44/30 29/59/30 30/60/30
f 42/61/31 41/62/31 48/63/31 49/64/31
f 31/56/32 30/55/32 37/65/32 38/66/32
f 29/57/33 35/43/33 42/61/33 36/67/33
f 34/42/34 33/58/34 40/68/34 41/62/34
f 32/52/35 31/56/35 38/66/35 39/53/35
f 30/60/36 29/59/36 36/69/36 37/70/36
f 35/43/37 34/42/37 41/62/37 42/61/37
f 44/71/38 43/72/38 49/64/38 48/63/38 47/73/38 46/74/38 45/75/38
f 40/54/39 39/53/39 46/76/39 47/77/39
f 38/66/40 37/65/40 44/78/40 45/79/40
f 36/69/41 42/80/41 49/81/41 43/82/41
f 41/62/42 40/68/42 47/73/42 48/63/42
f 39/53/43 38/66/43 45/79/43 46/76/43
f 37/70/44 36/69/44 43/82/44 44/83/44
f 61/84/45 60/85/45 53/86/45 52/87/45
f 50/88/45 51/89/45 55/90/45 54/91/45
f 54/91/45 55/90/45 56/92/45 57/93/45
f 57/93/45 56/92/45 58/94/45 59/95/45
f 59/95/45 58/94/45 60/85/45 61/84/45
f 73/84/46 72/85/46 65/86/46 64/87/46
f 62/88/46 63/89/46 67/90/46 66/91/46
f 66/91/46 67/90/46 68/92/46 69/93/46
f 69/93/46 68/92/46 70/94/46 71/95/46
f 71/95/46 70/94/46 72/85/46 73/84/46
f 85/84/47 76/87/47 77/86/47 84/85/47
f 74/88/47 78/91/47 79/90/47 75/89/47
f 78/91/47 81/93/47 80/92/47 79/90/47
f 81/93/47 83/95/47 82/94/47 80/92/47
f 83/95/47 85/84/47 84/85/47 82/94/47
f 97/84/48 88/87/48 89/86/48 96/85/48
f 86/88/48 90/91/48 91/90/48 87/89/48
f 90/91/48 93/93/48 92/92/48 91/90/48
f 93/93/48 95/95/48 94/94/48 92/92/48
f 95/95/48 97/84/48 96/85/48 94/94/48
