# Blender 4.0.1
# www.blender.org
o tree
v -0.366551 2.006489 0.359335
v 0.242621 2.010010 0.357421
v -0.598946 2.591539 0.538939
v -0.545446 2.672281 0.379272
v -0.081116 2.038268 0.482961
v 0.147272 2.222360 0.226523
v 0.622609 2.073300 -0.087061
v 0.076681 2.011252 -0.564591
v 0.373306 3.383971 0.042697
v -0.356514 3.117410 -0.171796
v 0.231276 2.402772 0.381623
v -0.598023 2.363503 -0.936060
v -0.119058 1.557290 0.076481
v 0.195001 2.082056 -0.419206
v 0.397748 3.302303 0.038972
v -0.305317 3.257898 -0.516205
v 0.800304 2.483927 0.445918
v -0.525789 2.815890 -0.400997
v 0.105993 1.877547 0.293895
v -0.055446 1.794527 0.355600
v -0.466330 2.798985 0.203351
v -0.555679 2.835190 0.574843
v -0.251249 2.193747 -0.163633
v -0.355321 2.160191 0.451649
v -0.105192 1.342714 -0.009738
v -0.059668 1.361013 0.039205
v -0.088433 1.358240 -0.090570
v 0.021953 1.320692 -0.005349
v -0.043245 0.956408 0.028928
v 0.025452 0.949619 0.017577
v -0.063453 0.927123 -0.103321
v -0.106835 0.917423 0.008860
v -0.095926 0.516688 -0.001328
v -0.041483 0.522401 0.054516
v -0.073964 0.510026 -0.048999
v -0.004130 0.550346 -0.015806
v 0.059867 0.011659 0.038383
v -0.107449 0.011659 -0.138203
v -0.036853 0.011659 0.091054
v -0.117074 0.011659 0.003140
v -0.111282 2.026846 -0.093937
v -0.074291 2.067866 -0.117863
v -0.019824 2.063566 -0.080952
v -0.050833 2.014047 -0.000924
v 0.360205 2.082389 -0.141140
v -0.297297 2.228434 0.083104
v 0.700001 3.069946 -0.393511
v 0.415969 3.177365 0.124391
v 0.399325 2.145006 -0.991200
v -0.338277 2.730139 0.107642
v -0.433623 2.044598 0.224097
v -0.302736 2.012432 0.165971
v -0.879968 2.766590 0.101706
v -0.695705 3.028092 0.090652
v -0.978460 2.472258 0.282347
v -0.368840 2.571158 0.274787
v -0.259814 2.131687 0.304368
v -0.310414 2.425597 0.327965
v -0.576819 2.795224 0.272841
v -0.326557 2.921538 0.179387
v -0.570148 2.259886 0.251646
v -0.138638 2.727681 0.371950
v -0.039666 1.984956 -0.117386
v 0.113634 2.006326 -0.505382
v 0.068006 3.447791 0.204685
v -0.099602 3.465146 -0.875383
v 0.661018 2.524080 0.601925
v 0.136038 2.501947 -0.755303
v -0.220331 2.459578 -0.323703
v -0.577694 2.465498 0.169639
v -0.228530 3.459240 -0.700523
v -0.131039 3.595017 -0.563223
v -0.488393 2.513017 -0.165908
v -0.415751 2.822592 0.169718
v -0.442430 2.571929 0.738549
v 0.265063 2.467587 0.578787
v -0.467639 4.765191 0.328400
v 0.202912 4.343556 -0.085889
v -0.590566 3.125977 0.146213
v 0.962732 3.059941 0.252483
v -0.137601 1.868310 0.042923
v 0.077881 2.586654 0.588732
v -0.479030 4.627855 0.350345
v 0.383785 4.553184 0.109362
v -0.977774 3.278277 0.484883
v 0.487840 3.836514 -0.087624
v -0.445867 2.242746 0.096671
v -0.400609 2.103139 -0.070128
v -0.035508 3.808086 -0.395649
v -0.283032 3.868969 -0.686717
v 0.134296 2.774475 0.077582
v -0.301537 2.718046 -0.369018
v -0.244132 2.611172 0.502403
v -0.037938 2.844520 -0.147573
v -0.240416 4.138148 0.757250
v -0.558785 4.318590 0.206121
v 0.404782 2.639735 0.818309
v -0.033620 3.649471 -0.297628
v -0.071541 2.523662 -0.298219
v -0.101690 2.469572 -0.158215
v 0.290328 3.753611 -0.669982
v 0.190696 4.193356 -0.514584
v 0.202398 3.258655 -0.855994
v -0.150667 3.424967 -0.358964
v -0.238805 2.670113 -0.205074
v -0.228058 3.180189 -0.343087
v -0.026558 3.801761 -0.525866
v -0.098496 4.014174 -0.268592
v -0.013363 2.885696 -0.424762
v -0.364805 3.688178 -0.230207
v -0.027732 2.423367 0.221295
v 0.195450 2.459304 0.573760
v -0.418651 4.767385 -0.062852
v 0.552800 4.703821 0.394727
v -1.021764 3.345800 0.280423
v 0.384188 3.292039 0.648154
v -0.711747 4.094549 -0.653873
v 0.359364 4.584472 -0.410214
v -0.292411 4.886183 0.119085
v -0.312042 3.114133 -0.121365
v -0.111998 2.806610 0.249680
v 0.291337 4.572214 0.286036
v -0.149117 3.090079 -0.163336
v -0.242078 2.531680 0.116368
v -0.121319 3.215284 -0.267237
v -0.186271 3.578279 0.805325
v 0.171676 3.314709 -0.882764
v 0.377479 4.278217 -0.002837
v -0.672871 2.847579 0.026230
v 0.105199 2.823523 -0.079364
v 0.075190 4.568082 0.337512
v -0.385656 2.870152 -0.092306
v 0.117091 2.550149 0.053913
v -0.756384 3.898554 -0.134777
v -0.321269 4.292450 -0.419452
v -0.169730 5.314083 -0.285308
v -0.413636 3.497045 -0.144634
v 0.383039 3.025014 0.311808
v -0.461266 2.847174 -0.338295
v -0.094226 2.832552 0.326513
v -0.310818 3.951728 -0.203449
v 0.094309 3.542331 0.693001
v -0.012296 3.095204 0.235018
v 0.422169 2.816965 0.459932
v -0.607282 3.357350 -0.843759
v -0.538369 3.272176 -0.464293
v -0.265168 4.197304 -0.191305
v -0.158367 3.964911 -0.890300
v -0.493951 2.834462 -0.308121
v -0.220112 4.497796 -0.645235
v -0.729990 3.983494 -0.287948
v -0.121775 2.818129 0.146128
v -0.403161 3.985618 -0.352748
v 0.828569 3.301235 -0.350123
v -0.093421 3.364414 0.265923
v 0.648027 3.534214 -0.507244
v 0.377688 2.778101 -0.288853
v -0.476479 4.249092 -0.112366
v 0.482178 2.920941 -0.148807
v 0.102207 4.766248 0.180046
v 0.349636 2.886325 -0.055225
v -0.314099 3.921180 -0.335822
v -0.234995 3.696126 -0.212405
v -0.320064 3.839412 -0.005143
vn 0.4398 0.5257 0.7282
vn 0.5428 0.5994 0.5882
vn 0.4648 0.4692 0.7508
vn 0.0064 -0.9719 0.2352
vn 0.5436 0.6615 0.5167
vn 0.3345 0.5988 0.7277
vn 0.8135 -0.2916 -0.5033
vn 0.5018 0.7672 -0.3994
vn 0.3955 0.8241 -0.4056
vn 0.2544 0.8782 -0.4050
vn -0.0598 0.7200 -0.6914
vn 0.5856 0.7107 -0.3898
vn 0.6020 -0.0466 -0.7971
vn 0.5172 -0.2386 -0.8219
vn 0.5610 0.1786 -0.8083
vn 0.7348 -0.6432 -0.2154
vn 0.5677 -0.4610 -0.6821
vn 0.5431 0.5492 -0.6351
vn -0.8985 -0.4007 -0.1795
vn -0.9515 -0.2401 -0.1924
vn -0.9026 -0.3936 -0.1741
vn 0.1458 -0.7570 -0.6370
vn -0.9480 -0.2441 -0.2042
vn -0.7834 -0.5991 -0.1652
vn 0.3871 -0.8056 -0.4484
vn 0.7170 -0.3598 -0.5970
vn 0.6358 -0.5196 -0.5707
vn 0.0308 -0.0011 -0.9995
vn 0.5399 -0.0045 -0.8417
vn 0.6619 -0.0247 -0.7492
vn 0.0705 -0.0594 -0.9957
vn 0.9393 0.0243 0.3421
vn 0.9413 0.0248 0.3368
vn 0.9174 0.0307 0.3968
vn 0.9277 0.0300 0.3722
vn -0.7129 0.0203 0.7010
vn -0.7141 0.0139 0.6999
vn -0.6705 0.0078 0.7418
vn -0.6441 0.0204 0.7647
vn -0.5871 0.0461 0.8082
vn 0.6400 -0.0233 -0.7680
vn 0.9590 -0.0264 -0.2823
vn -0.6333 -0.0253 -0.7735
vn -0.6441 -0.0568 -0.7628
vn -0.4955 0.0029 -0.8686
vn -0.6752 -0.0115 0.7375
vn -0.6896 0.0172 0.7240
vn -0.5107 -0.0437 -0.8586
vn -0.6576 -0.0447 0.7520
vn -0.6598 -0.1074 -0.7437
vn 0.7300 -0.0394 -0.6823
vn 0.9564 -0.0598 -0.2860
vn 0.9837 -0.0676 0.1668
vn 0.9634 -0.0269 0.2666
vn -0.0000 1.0000 -0.0000
vn -0.7371 -0.0731 -0.6718
vn 0.8820 0.0325 0.4701
vn -0.7001 0.3815 -0.6036
vn -0.4902 0.6627 -0.5662
vn -0.6253 0.4321 -0.6498
vn -0.2428 -0.9666 -0.0824
vn -0.4574 0.7870 -0.4141
vn -0.8398 -0.0421 -0.5413
vn -0.0455 0.0628 0.9970
vn -0.1608 0.3844 0.9090
vn -0.0088 0.2802 0.9599
vn 0.1962 0.0403 0.9797
vn 0.4521 0.4729 0.7563
vn -0.2407 0.2097 0.9477
vn -0.1880 0.2510 0.9496
vn -0.1796 0.2361 0.9550
vn -0.2297 -0.0669 0.9710
vn -0.2744 -0.0127 0.9615
vn -0.2122 -0.1144 0.9705
vn -0.0634 0.6717 0.7381
vn 0.9503 0.1032 -0.2938
vn 0.9060 0.3318 -0.2627
vn 0.9514 0.0590 -0.3024
vn 0.8448 -0.5031 -0.1824
vn 0.5008 -0.8523 0.1509
vn 0.9650 0.2178 -0.1462
vn -0.9435 0.3252 -0.0632
vn -0.8980 0.4241 0.1170
vn -0.9430 0.3200 -0.0910
vn -0.3105 -0.9262 -0.2138
vn -0.8701 0.4679 0.1551
vn -0.8957 0.4062 -0.1808
vn -0.0574 0.2172 0.9744
vn -0.0723 -0.1048 0.9919
vn 0.0130 0.2622 0.9649
vn 0.0576 0.5994 0.7984
vn 0.2504 0.7375 0.6272
vn 0.6613 0.5311 0.5298
vn 0.2898 0.0570 0.9554
vn 0.3394 -0.1027 0.9350
vn 0.2846 0.2117 0.9350
vn -0.3914 -0.4794 0.7855
vn 0.2442 -0.2239 0.9435
vn 0.1873 0.4193 0.8883
vn 0.7039 -0.2932 -0.6470
vn 0.7238 -0.1928 -0.6625
vn 0.7040 -0.2832 -0.6513
vn 0.5404 -0.5673 0.6214
vn 0.7270 -0.1935 -0.6588
vn 0.6790 -0.4065 -0.6113
vn 0.9195 0.3526 -0.1736
vn 0.8355 0.5425 -0.0875
vn 0.9596 0.2121 -0.1851
vn 0.1787 -0.9427 -0.2818
vn 0.7029 0.6879 -0.1809
vn 0.8988 -0.0850 -0.4300
vn -0.7767 0.0574 -0.6272
vn -0.6661 0.2192 -0.7129
vn -0.8018 0.1162 -0.5862
vn -0.9310 0.0376 -0.3631
vn -0.9544 0.2826 -0.0963
vn -0.6329 0.1265 -0.7638
vn -0.6463 0.1250 -0.7528
vn -0.6806 0.1746 -0.7115
vn -0.5584 -0.1439 -0.8170
vn -0.2285 0.1019 -0.9682
vn -0.5777 -0.2018 -0.7909
vn -0.6642 0.4746 -0.5776
vn -0.2818 0.1380 0.9495
vn -0.3209 0.2638 0.9097
vn -0.3040 0.1104 0.9462
vn -0.4580 -0.3600 0.8128
vn -0.5948 -0.6695 0.4449
vn -0.4056 0.2082 0.8900
vn -0.3029 0.1525 0.9407
vn 0.6276 0.6821 -0.3755
vn 0.5219 0.7047 0.4807
vn -0.9382 0.3295 0.1058
vn 0.9652 0.2531 0.0658
vn 0.9837 0.1346 -0.1195
vn 0.9508 0.2763 0.1403
vn 0.8109 0.5804 0.0752
vn 0.7395 0.6686 -0.0786
vn 0.8231 0.3607 -0.4388
vn 0.9940 -0.0757 -0.0788
vn 0.9043 -0.4043 -0.1370
vn 0.9819 0.1488 -0.1170
vn 0.7092 -0.3702 0.6000
vn 0.7423 -0.6674 0.0608
vn 0.8510 0.5252 0.0044
vn -0.1978 -0.2740 -0.9412
vn -0.4799 -0.0251 -0.8770
vn -0.1385 -0.1991 -0.9702
vn 0.2864 -0.3324 -0.8986
vn 0.6728 -0.2088 -0.7097
vn -0.5024 -0.0151 -0.8645
vn 0.0572 0.3341 -0.9408
vn 0.0733 0.6006 -0.7962
vn 0.0846 0.1786 -0.9803
vn 0.0536 -0.9339 -0.3536
vn -0.0547 0.7357 -0.6751
vn -0.0758 -0.1169 -0.9902
vn -0.7874 0.0093 0.6164
vn -0.7007 -0.0497 0.7118
vn -0.8555 -0.0237 0.5172
vn 0.3055 0.7129 0.6313
vn -0.5751 0.1929 0.7951
vn -0.8862 0.1724 0.4300
vn -0.9321 0.1987 0.3029
vn -0.9232 0.2217 0.3140
vn -0.8449 -0.2204 0.4874
vn -0.9182 -0.0492 0.3929
vn -0.6677 -0.4608 0.5847
vn -0.8848 0.3146 0.3438
vn 0.8291 0.1796 0.5294
vn 0.7912 0.3048 0.5302
vn 0.8262 0.2222 0.5177
vn 0.1229 -0.7346 0.6672
vn 0.7844 0.2922 0.5471
vn 0.8436 -0.0141 0.5367
vt 0.667459 0.933906
vt 0.621091 0.992193
vt 0.597643 0.933107
vt 0.686274 0.796096
vt 0.596250 0.796096
vt 0.640340 0.983507
vt 0.716794 0.827515
vt 0.713506 0.828998
s 1
f 6/1/1 3/2/2 5/3/3
f 2/4/4 5/3/4 1/5/4
f 6/1/1 4/6/5 3/2/2
f 2/4/6 6/1/1 5/3/3
f 12/1/7 9/2/7 11/3/7
f 8/4/8 11/3/9 7/5/10
f 12/1/11 10/6/11 9/2/11
f 8/4/8 12/1/12 11/3/9
f 18/1/13 15/2/14 17/3/15
f 14/4/16 17/3/16 13/5/16
f 18/1/13 16/6/17 15/2/14
f 14/4/18 18/1/13 17/3/15
f 24/1/19 21/2/20 23/3/21
f 20/4/22 23/3/22 19/5/22
f 24/1/19 22/6/23 21/2/20
f 20/4/24 24/1/19 23/3/21
f 42/7/25 43/8/25 44/8/26 41/7/27
f 29/8/28 32/7/29 25/7/30 26/8/31
f 32/7/32 31/7/33 27/7/34 25/7/35
f 31/7/36 30/8/37 28/8/38 27/7/39
f 27/7/39 28/8/38 43/8/40 42/7/40
f 34/8/41 33/7/42 32/7/29 29/8/28
f 36/8/43 34/8/44 29/8/28 30/8/45
f 35/7/46 36/8/47 30/8/37 31/7/36
f 30/8/45 29/8/28 26/8/31 28/8/48
f 38/7/49 37/8/49 36/8/47 35/7/46
f 37/8/50 39/8/50 34/8/44 36/8/43
f 39/8/51 40/7/52 33/7/42 34/8/41
f 40/7/52 38/7/53 35/7/54 33/7/42
f 33/7/42 35/7/54 31/7/33 32/7/32
f 38/7/55 40/7/55 39/8/55 37/8/55
f 28/8/48 26/8/31 44/8/56 43/8/56
f 26/8/31 25/7/30 41/7/27 44/8/26
f 25/7/35 27/7/34 42/7/57 41/7/57
f 50/1/58 47/2/59 49/3/60
f 46/4/61 49/3/61 45/5/61
f 50/1/58 48/6/62 47/2/59
f 46/4/63 50/1/58 49/3/60
f 56/1/64 53/2/65 55/3/66
f 52/4/67 55/3/66 51/5/68
f 56/1/64 54/6/69 53/2/65
f 52/4/67 56/1/64 55/3/66
f 62/1/70 59/2/71 61/3/72
f 58/4/73 61/3/72 57/5/74
f 62/1/70 60/6/75 59/2/71
f 58/4/73 62/1/70 61/3/72
f 68/1/76 65/2/77 67/3/78
f 64/4/79 67/3/78 63/5/80
f 68/1/76 66/6/81 65/2/77
f 64/4/79 68/1/76 67/3/78
f 74/1/82 71/2/83 73/3/84
f 70/4/85 73/3/85 69/5/85
f 74/1/82 72/6/86 71/2/83
f 70/4/87 74/1/82 73/3/84
f 80/1/88 77/2/89 79/3/90
f 76/4/91 79/3/90 75/5/92
f 80/1/93 78/6/93 77/2/93
f 76/4/91 80/1/88 79/3/90
f 86/1/94 83/2/95 85/3/96
f 82/4/97 85/3/97 81/5/97
f 86/1/94 84/6/98 83/2/95
f 82/4/99 86/1/94 85/3/96
f 92/1/100 89/2/101 91/3/102
f 88/4/103 91/3/103 87/5/103
f 92/1/100 90/6/104 89/2/101
f 88/4/105 92/1/100 91/3/102
f 98/1/106 95/2/107 97/3/108
f 94/4/109 97/3/109 93/5/109
f 98/1/106 96/6/110 95/2/107
f 94/4/111 98/1/106 97/3/108
f 104/1/112 101/2/113 103/3/114
f 100/4/115 103/3/114 99/5/116
f 104/1/112 102/6/117 101/2/113
f 100/4/115 104/1/112 103/3/114
f 110/1/118 107/2/119 109/3/120
f 106/4/121 109/3/120 105/5/122
f 110/1/118 108/6/123 107/2/119
f 106/4/121 110/1/118 109/3/120
f 116/1/124 113/2/125 115/3/126
f 112/4/127 115/3/126 111/5/128
f 116/1/124 114/6/129 113/2/125
f 112/4/127 116/1/124 115/3/126
f 143/1/130 134/2/130 121/3/130
f 140/4/131 121/3/131 132/5/131
f 143/1/132 151/6/132 134/2/132
f 140/4/133 143/1/133 121/3/133
f 127/1/134 160/2/135 155/3/136
f 157/4/137 155/3/136 144/5/138
f 127/1/134 150/6/139 160/2/135
f 157/4/137 127/1/134 155/3/136
f 148/1/140 122/2/141 142/3/142
f 159/4/143 142/3/143 133/5/143
f 148/1/140 118/6/144 122/2/141
f 159/4/145 148/1/140 142/3/142
f 129/1/146 141/2/147 120/3/148
f 124/4/149 120/3/148 152/5/150
f 129/1/146 158/6/151 141/2/147
f 124/4/149 129/1/146 120/3/148
f 162/1/152 128/2/153 154/3/154
f 125/4/155 154/3/155 138/5/155
f 162/1/152 131/6/156 128/2/153
f 125/4/157 162/1/152 154/3/154
f 163/1/158 117/2/159 145/3/160
f 139/4/161 145/3/161 149/5/161
f 163/1/158 135/6/162 117/2/159
f 139/4/163 163/1/158 145/3/160
f 164/1/164 153/2/165 146/3/166
f 137/4/167 146/3/166 123/5/168
f 164/1/164 147/6/169 153/2/165
f 137/4/167 164/1/164 146/3/166
f 156/1/170 119/2/171 126/3/172
f 161/4/173 126/3/173 130/5/173
f 156/1/170 136/6/174 119/2/171
f 161/4/175 156/1/170 126/3/172
